<?xml version="1.0" encoding="iso-8859-1"?>
<!-- Generator: Adobe Illustrator 19.0.0, SVG Export Plug-In . SVG Version: 6.00 Build 0)  -->
<svg xmlns="http://www.w3.org/2000/svg" xmlns:xlink="http://www.w3.org/1999/xlink" version="1.1" id="Capa_1" x="0px" y="0px" viewBox="0 0 512 512" style="enable-background:new 0 0 512 512;" xml:space="preserve" width="512px" height="512px">
<g>
	<g>
		<g>
			<path d="M45.714,193.6c-3.748,0-9.143,7.131-9.143,18.286c0,11.246,5.395,18.286,9.143,18.286s9.143-7.04,9.143-18.286     C54.857,200.732,49.462,193.6,45.714,193.6z" fill="#FFFFFF"/>
			<path d="M128,248.457c-3.748,0-9.143,7.131-9.143,18.286c0,11.246,5.395,18.286,9.143,18.286s9.143-7.04,9.143-18.286     C137.143,255.589,131.748,248.457,128,248.457z" fill="#FFFFFF"/>
			<path d="M128,349.029c-3.748,0-9.143,7.131-9.143,18.286c0,11.246,5.395,18.286,9.143,18.286s9.143-7.04,9.143-18.286     C137.143,356.16,131.748,349.029,128,349.029z" fill="#FFFFFF"/>
			<path d="M380.069,110.857c0,0.091,0,0.091,0.091,0.183c-0.012,0.101,0.021,0.201,0.091,0.274c2.441,4.982,3.722,10.452,3.748,16     v10.149c5.787-2.439,12.006-3.683,18.286-3.657c20.48,0,36.571,12.069,36.571,27.429s-16.091,27.429-36.571,27.429     c-6.279,0.026-12.499-1.218-18.286-3.657v41.691l120.686-68.937c-0.6-0.538-1.242-1.027-1.92-1.463l-164.571-94.08     c-5.586-3.291-12.517-3.291-18.103,0l-6.4,3.657l51.84,29.623C371.778,99.081,376.834,104.423,380.069,110.857z" fill="#FFFFFF"/>
			<path d="M45.714,294.172c-3.748,0-9.143,7.131-9.143,18.286c0,11.246,5.395,18.286,9.143,18.286s9.143-7.04,9.143-18.286     C54.857,301.303,49.462,294.172,45.714,294.172z" fill="#FFFFFF"/>
			<path d="M420.571,161.234c0-3.749-7.131-9.143-18.286-9.143S384,157.486,384,161.234s7.131,9.143,18.286,9.143     S420.571,164.983,420.571,161.234z" fill="#FFFFFF"/>
			<path d="M429.714,316.663c-3.748,0-9.143,7.131-9.143,18.286s5.395,18.286,9.143,18.286s9.143-7.131,9.143-18.286     S433.462,316.663,429.714,316.663z" fill="#FFFFFF"/>
			<path d="M0,129.783v212.48c0.001,6.576,3.525,12.647,9.234,15.909l164.48,93.989V227.429c-3.2-0.796-6.277-2.026-9.143-3.657     L0,129.783z M45.714,349.029c-15.359,0-27.429-16-27.429-36.571c0-20.48,12.069-36.571,27.429-36.571     s27.429,16.091,27.429,36.571C73.143,333.029,61.074,349.029,45.714,349.029z M45.714,248.457c-15.359,0-27.429-16-27.429-36.571     c0-20.48,12.069-36.571,27.429-36.571s27.429,16.091,27.429,36.571C73.143,232.457,61.074,248.457,45.714,248.457z M128,403.886     c-15.359,0-27.429-16-27.429-36.571c0-20.48,12.069-36.571,27.429-36.571s27.429,16.091,27.429,36.571     C155.429,387.886,143.359,403.886,128,403.886z M128,303.314c-15.359,0-27.429-16-27.429-36.571     c0-20.48,12.069-36.571,27.429-36.571s27.429,16.091,27.429,36.571C155.429,287.314,143.359,303.314,128,303.314z" fill="#FFFFFF"/>
			<polygon points="320,497.052 320,400.137 235.246,448.503    " fill="#FFFFFF"/>
			<path d="M384,247.726v94.537c0.015,13.156-7.037,25.306-18.469,31.817l-27.246,15.543v107.429l164.48-94.08     c5.715-3.211,9.248-9.262,9.234-15.817v-212.48L384,247.726z M429.714,371.52c-15.359,0-27.429-16.091-27.429-36.571     s12.069-36.571,27.429-36.571s27.429,16.091,27.429,36.571S445.074,371.52,429.714,371.52z" fill="#FFFFFF"/>
			<path d="M365.714,342.263v-212.48L201.326,223.68c-2.942,1.63-6.074,2.89-9.326,3.749V452.16l164.48-93.989     C362.19,354.91,365.714,348.839,365.714,342.263z M237.714,394.743c-15.359,0-27.429-16-27.429-36.571     c0-20.48,12.069-36.571,27.429-36.571s27.429,16.091,27.429,36.571C265.143,378.743,253.074,394.743,237.714,394.743z M320,257.6     c-15.359,0-27.429-16-27.429-36.571c0-20.48,12.069-36.571,27.429-36.571s27.429,16.091,27.429,36.571     C347.429,241.6,335.359,257.6,320,257.6z" fill="#FFFFFF"/>
			<path d="M182.857,102.172c-11.154,0-18.286,5.486-18.286,9.143c0,3.749,7.131,9.143,18.286,9.143     c11.154,0,18.286-5.394,18.286-9.143C201.143,107.657,194.011,102.172,182.857,102.172z" fill="#FFFFFF"/>
			<path d="M358.491,112.869c-0.731-0.457-1.279-1.097-2.011-1.463l-164.571-94.08c-5.618-3.17-12.485-3.17-18.103,0L9.234,111.406     c-0.732,0.366-1.28,1.006-2.011,1.463l166.309,94.994c5.897,3.126,12.968,3.091,18.834-0.091L358.491,112.869z M182.857,138.743     c-20.48,0-36.571-11.977-36.571-27.429c0-15.36,16.091-27.429,36.571-27.429c20.48,0,36.571,12.069,36.571,27.429     C219.429,126.766,203.337,138.743,182.857,138.743z" fill="#FFFFFF"/>
			<path d="M320,202.743c-3.748,0-9.143,7.131-9.143,18.286c0,11.246,5.395,18.286,9.143,18.286s9.143-7.04,9.143-18.286     C329.143,209.874,323.748,202.743,320,202.743z" fill="#FFFFFF"/>
			<path d="M237.714,339.886c-3.748,0-9.143,7.131-9.143,18.286c0,11.246,5.395,18.286,9.143,18.286s9.143-7.04,9.143-18.286     C246.857,347.017,241.462,339.886,237.714,339.886z" fill="#FFFFFF"/>
		</g>
	</g>
</g>
<g>
</g>
<g>
</g>
<g>
</g>
<g>
</g>
<g>
</g>
<g>
</g>
<g>
</g>
<g>
</g>
<g>
</g>
<g>
</g>
<g>
</g>
<g>
</g>
<g>
</g>
<g>
</g>
<g>
</g>
</svg>
